<svg width="24" height="24" viewBox="0 0 24 24" fill="none" xmlns="http://www.w3.org/2000/svg">
<path d="M2 2H22V22H2V2ZM4 4V11H5.17085C5.58288 9.83505 6.69431 9 8 9C9.30569 9 10.4171 9.83505 10.8292 11H11L11 9H12C12.5517 9 13 8.55172 13 8C13 7.44828 12.5517 7 12 7H11V4H4ZM13 4V5.17085C14.1649 5.58288 15 6.69431 15 8C15 9.30569 14.1649 10.4171 13 10.8292L13 11H15V12C15 12.5517 15.4483 13 16 13C16.5517 13 17 12.5517 17 12V11H20V4H13ZM20 13H18.8292C18.4171 14.1649 17.3057 15 16 15C14.6943 15 13.5829 14.1649 13.1708 13H13L13 15H12C11.4483 15 11 15.4483 11 16C11 16.5517 11.4483 17 12 17H13V20H20V13ZM11 20V18.8292C9.83505 18.4171 9 17.3057 9 16C9 14.6943 9.83505 13.5829 11 13.1708L11 13H9V12C9 11.4483 8.55172 11 8 11C7.44828 11 7 11.4483 7 12V13H4V20H11Z" fill="#161513"/>
</svg>
